<svg data-v-3423ccbc="" version="1.1" xmlns="http://www.w3.org/2000/svg" xmlns:xlink="http://www.w3.org/1999/xlink" x="0px" y="0px" width="20" height="20" viewBox="0 0 26 25" xml:space="preserve" style=""><g data-v-3423ccbc="" id="Layer_2" style="display: none;"><g data-v-3423ccbc="" style="display: inline;"><g data-v-3423ccbc=""><path data-v-3423ccbc="" d="M12.5,4.8C5.6,4.8,0,13.1,0,13.1s5.6,8.3,12.5,8.3S25,13.1,25,13.1S19.4,4.8,12.5,4.8z M9.5,8.2
			C11.4,7,12.6,7,12.8,7c0.5,0,0.8,0.4,0.8,0.8c0,0.5-0.4,0.8-0.8,0.8c0,0-0.9,0-2.3,1c-1.3,0.8-1.3,2-1.3,2.1
			c0,0.5-0.4,0.8-0.8,0.8c0,0,0,0,0,0c-0.5,0-0.8-0.4-0.8-0.8C7.5,11.6,7.5,9.6,9.5,8.2z M12.5,20.3c-5.2,0-9.7-5.4-11.1-7.2
			C2.2,12,4.2,9.6,6.8,7.9C6,9,5.6,10.3,5.6,11.7c0,3.7,3,6.7,6.7,6.7c3.7,0,6.7-3,6.7-6.7c0-1.7-0.7-3.3-1.8-4.5
			c3.1,1.7,5.5,4.6,6.5,5.9C22.2,14.9,17.7,20.3,12.5,20.3z" style="fill: rgb(35, 135, 235);"></path></g></g></g> <g data-v-3423ccbc="" id="Layer_1"><g data-v-3423ccbc=""><path data-v-3423ccbc="" d="M18.3,6.6l-0.6,1c2.8,1.7,5,4.3,5.9,5.5c-1.4,1.9-6,7.2-11.1,7.2c-0.7,0-1.4-0.1-2.1-0.3l-0.6,1
		c0.9,0.3,1.8,0.4,2.7,0.4c6.9,0,12.5-8.3,12.5-8.3S22.3,9.1,18.3,6.6z" style="fill: rgb(204, 204, 204);"></path> <path data-v-3423ccbc="" d="M12.2,18.4c3.7,0,6.7-3,6.7-6.7c0-1.5-0.5-2.8-1.3-3.9l-6.2,10.5C11.7,18.4,11.9,18.4,12.2,18.4z" style="fill: rgb(204, 204, 204);"></path> <path data-v-3423ccbc="" d="M17.8,4.5l-1.7-1l-1,1.7c-0.9-0.3-1.7-0.4-2.6-0.4C5.6,4.8,0,13.1,0,13.1s2.7,4,6.7,6.5l-0.5,0.9
		l1.7,1L17.8,4.5 M9.5,8.3C11.4,7,12.6,7,12.8,7c0.5,0,0.8,0.4,0.8,0.8c0,0.5-0.4,0.8-0.8,0.8c0,0-0.9,0-2.3,1
		c-1.3,0.8-1.3,2-1.3,2.1c0,0.5-0.4,0.8-0.8,0.8c0,0,0,0,0,0c-0.5,0-0.8-0.4-0.8-0.8C7.5,11.6,7.5,9.6,9.5,8.3z M1.4,13.1
		C2.2,12,4.2,9.6,6.8,7.9C6,9,5.6,10.3,5.6,11.7c0,2.2,1,4.1,2.6,5.3l-0.9,1.6C4.4,16.9,2.3,14.3,1.4,13.1z" style="fill: rgb(204, 204, 204);"></path></g></g></svg>