<svg width="24" height="24" viewBox="0 0 24 24" fill="none" xmlns="http://www.w3.org/2000/svg">
<path d="M21.7504 2.99965C22.0468 2.99431 22.3411 3.04976 22.6153 3.16259C22.8894 3.27541 23.1376 3.44322 23.3444 3.65565C23.5568 3.86244 23.7246 4.11057 23.8374 4.38472C23.9502 4.65887 24.0057 4.95323 24.0004 5.24965V18.7496C24.0057 19.0461 23.9502 19.3404 23.8374 19.6146C23.7246 19.8887 23.5568 20.1369 23.3444 20.3436C23.1376 20.5561 22.8894 20.7239 22.6153 20.8367C22.3411 20.9495 22.0468 21.005 21.7504 20.9996H2.25035C1.95394 21.005 1.65958 20.9495 1.38542 20.8367C1.11127 20.7239 0.863144 20.5561 0.656352 20.3436C0.443922 20.1369 0.276118 19.8887 0.163292 19.6146C0.0504665 19.3404 -0.00498733 19.0461 0.000351996 18.7496V5.24965C-0.00498733 4.95323 0.0504665 4.65887 0.163292 4.38472C0.276118 4.11057 0.443922 3.86244 0.656352 3.65565C0.863144 3.44322 1.11127 3.27541 1.38542 3.16259C1.65958 3.04976 1.95394 2.99431 2.25035 2.99965H21.7504ZM2.25035 4.49965C2.15087 4.49621 2.05174 4.51316 1.95905 4.54944C1.86635 4.58573 1.78206 4.64059 1.71135 4.71065C1.64129 4.78136 1.58643 4.86565 1.55015 4.95834C1.51386 5.05103 1.49692 5.15017 1.50035 5.24965V7.17165C2.59435 8.10898 4.95369 10.0153 8.57835 12.8906L9.00035 13.2656C9.46877 13.681 9.97046 14.0573 10.5004 14.3906C10.931 14.7343 11.452 14.9458 12.0004 14.9996C12.5487 14.9458 13.0697 14.7343 13.5004 14.3906C14.0078 14.0465 14.4931 13.6708 14.9534 13.2656L15.4224 12.8906C19.047 10.016 21.4064 8.10965 22.5004 7.17165V5.24965C22.5038 5.15017 22.4868 5.05103 22.4506 4.95834C22.4143 4.86565 22.3594 4.78136 22.2894 4.71065C22.2186 4.64059 22.1344 4.58573 22.0417 4.54944C21.949 4.51316 21.8498 4.49621 21.7504 4.49965H2.25035ZM21.7504 19.4996C21.8498 19.5031 21.949 19.4861 22.0417 19.4499C22.1344 19.4136 22.2186 19.3587 22.2894 19.2886C22.3594 19.2179 22.4143 19.1336 22.4506 19.041C22.4868 18.9483 22.5038 18.8491 22.5004 18.7496V9.14065C21.4064 10.016 19.3594 11.6566 16.3594 14.0626L15.8904 14.4376C15.3232 14.9253 14.7286 15.3801 14.1094 15.7996C13.4819 16.2181 12.7534 16.4599 12.0004 16.4996C11.2473 16.4599 10.5188 16.2181 9.89135 15.7996C9.26068 15.3957 8.66464 14.9402 8.10935 14.4376L7.64035 14.0626C4.64035 11.6566 2.59335 10.016 1.49935 9.14065V18.7496C1.49592 18.8491 1.51286 18.9483 1.54915 19.041C1.58543 19.1336 1.64029 19.2179 1.71035 19.2886C1.78118 19.3588 1.86563 19.4138 1.95851 19.4501C2.05138 19.4863 2.1507 19.5032 2.25035 19.4996H21.7504Z" fill="#1187F4"/>
</svg>
