<svg width="24" height="24" viewBox="0 0 24 24" fill="none" xmlns="http://www.w3.org/2000/svg">
<path d="M15.7501 1.50029C14.5628 1.49173 13.3958 1.80778 12.3751 2.41429C11.3573 3.01011 10.5099 3.85757 9.91405 4.87529C9.30755 5.89599 8.9915 7.06302 9.00005 8.25029C8.9984 9.11571 9.15743 9.97392 9.46905 10.7813L1.50005 18.7503V22.5003H6.00005V19.5003H9.00005V16.5003H11.2501L13.2191 14.5313C14.0264 14.8429 14.8846 15.0019 15.7501 15.0003C16.9373 15.0088 18.1044 14.6928 19.1251 14.0863C20.1428 13.4905 20.9902 12.643 21.5861 11.6253C22.1926 10.6046 22.5086 9.43756 22.5001 8.25029C22.5086 7.06302 22.1926 5.89599 21.5861 4.87529C20.9902 3.85757 20.1428 3.01011 19.1251 2.41429C18.1044 1.80778 16.9373 1.49173 15.7501 1.50029ZM15.7501 0.000289617C17.207 -0.0120144 18.6405 0.367934 19.9001 1.10029C21.148 1.81703 22.1833 2.8523 22.9001 4.10029C23.6324 5.35988 24.0124 6.79332 24.0001 8.25029C24.0124 9.70726 23.6324 11.1407 22.9001 12.4003C22.1833 13.6483 21.148 14.6836 19.9001 15.4003C18.6405 16.1326 17.207 16.5126 15.7501 16.5003C15.0377 16.5012 14.3284 16.4067 13.6411 16.2193L12.1881 17.6723C12.0843 17.7789 11.9598 17.863 11.8221 17.9194C11.6845 17.9758 11.5368 18.0034 11.3881 18.0003H10.5001V19.8753C10.5031 20.024 10.4756 20.1718 10.4192 20.3094C10.3628 20.447 10.2786 20.5715 10.1721 20.6753C10.0683 20.7819 9.94376 20.866 9.80614 20.9224C9.66851 20.9788 9.52076 21.0064 9.37205 21.0033H7.50005V22.8753C7.50313 23.024 7.47561 23.1718 7.41918 23.3094C7.36276 23.447 7.27864 23.5715 7.17205 23.6753C7.06831 23.7819 6.94376 23.866 6.80614 23.9224C6.66851 23.9788 6.52076 24.0064 6.37205 24.0033H1.12505C0.976344 24.0064 0.82859 23.9788 0.690968 23.9224C0.553346 23.866 0.428796 23.7819 0.325052 23.6753C0.219007 23.5713 0.135444 23.4466 0.0795396 23.309C0.0236356 23.1714 -0.00341878 23.0238 5.21726e-05 22.8753V18.6093C-0.00303032 18.4606 0.0244958 18.3128 0.0809208 18.1752C0.137346 18.0376 0.221465 17.913 0.328052 17.8093L7.78105 10.3563C7.59395 9.66995 7.49944 8.96168 7.50005 8.25029C7.48775 6.79332 7.8677 5.35988 8.60005 4.10029C9.31679 2.8523 10.3521 1.81703 11.6001 1.10029C12.8596 0.367934 14.2931 -0.0120144 15.7501 0.000289617ZM18.0001 5.06329C17.8773 5.06293 17.7558 5.08767 17.643 5.13599C17.5302 5.18431 17.4285 5.2552 17.3441 5.34429C17.255 5.4287 17.1841 5.53043 17.1358 5.64325C17.0874 5.75606 17.0627 5.87756 17.0631 6.00029C17.0627 6.12302 17.0874 6.24452 17.1358 6.35733C17.1841 6.47014 17.255 6.57188 17.3441 6.65629C17.4285 6.74538 17.5302 6.81627 17.643 6.86459C17.7558 6.91291 17.8773 6.93765 18.0001 6.93729C18.1228 6.93765 18.2443 6.91291 18.3571 6.86459C18.4699 6.81627 18.5716 6.74538 18.6561 6.65629C18.7453 6.57197 18.8164 6.47027 18.8649 6.35745C18.9134 6.24464 18.9383 6.12309 18.9381 6.00029C18.9384 5.87756 18.9137 5.75606 18.8654 5.64325C18.817 5.53043 18.7461 5.4287 18.6571 5.34429C18.5725 5.25508 18.4706 5.18412 18.3576 5.13579C18.2446 5.08746 18.1229 5.06279 18.0001 5.06329ZM18.0001 3.75129C18.2965 3.74595 18.5908 3.8014 18.865 3.91423C19.1391 4.02706 19.3873 4.19486 19.5941 4.40729C19.8064 4.61396 19.9741 4.86193 20.0869 5.1359C20.1997 5.40987 20.2553 5.70404 20.2501 6.00029C20.2554 6.2967 20.1999 6.59107 20.0871 6.86522C19.9743 7.13937 19.8065 7.3875 19.5941 7.59429C19.3873 7.80672 19.1391 7.97452 18.865 8.08735C18.5908 8.20018 18.2965 8.25563 18.0001 8.25029C17.7036 8.25563 17.4093 8.20018 17.1351 8.08735C16.861 7.97452 16.6128 7.80672 16.4061 7.59429C16.1936 7.3875 16.0258 7.13937 15.913 6.86522C15.8002 6.59107 15.7447 6.2967 15.7501 6.00029C15.7447 5.70388 15.8002 5.40951 15.913 5.13536C16.0258 4.86121 16.1936 4.61308 16.4061 4.40629C16.6128 4.19386 16.861 4.02606 17.1351 3.91323C17.4093 3.80041 17.7036 3.74495 18.0001 3.75029V3.75129Z" fill="#1187F4"/>
</svg>
